:FULLY-SPECIFIED
:FORCE-ALL-JOINTS-BE-3DOF
:DEGREES
2854
root -6.08962 13.2678 -28.8142 1240.71 -66.7123 -158.98
lfemur -65.5853 44.966 -5.51612
ltibia 77.1535 0 0
lfoot -4.76825 -6.22618 0
ltoes -29.2158 0 0
rfemur -31.1805 -19.2163 22.4647
rtibia 88.7728 0 0
rfoot -41.0915 -28.8338 0
rtoes -13.8547 0 0
lowerback 15.6578 5.61786 1.00615
upperback -4.50742 7.98619 1.66387
thorax -13.9538 3.69449 -0.892518
lowerneck -2.53409 9.63301 2.25219
upperneck 9.15621 12.5423 2.02473
head 3.40727 6.3359 0.745991
lclavicle -4.20779e-014 -3.17592e-015 0
lhumerus 5.55364 12.2502 84.2214
lradius 93.4329 0 0
lwrist -19.1822 0 0
lhand -39.4819 388.163 0
lfingers 7.12502 0 0
lthumb -12.4684 -662.228 0
rclavicle -4.20779e-014 -3.17592e-015 0
rhumerus -59.1593 51.0442 -111.602
rradius 113.603 0 0
rwrist -83.7184 0 0
rhand 8.01486 -385.97 0
rfingers 7.12502 0 0
rthumb 33.2412 307.08 0
2855
root -6.09106 13.2651 -28.8138 1240.69 -66.7194 -158.942
lfemur -65.6343 44.9663 -5.52767
ltibia 77.1825 0 0
lfoot -4.80709 -6.23412 0
ltoes -29.3387 0 0
rfemur -31.2035 -19.2096 22.4803
rtibia 88.7943 0 0
rfoot -41.0907 -28.8617 0
rtoes -13.8622 0 0
lowerback 15.6646 5.61337 1.02484
upperback -4.5114 7.98437 1.66421
thorax -13.9599 3.69177 -0.902751
lowerneck -2.53824 9.63207 2.25306
upperneck 9.15896 12.5403 2.03018
head 3.40867 6.33516 0.747842
lclavicle -3.73368e-014 -1.72563e-015 0
lhumerus 5.57107 12.2481 84.2114
lradius 93.4214 0 0
lwrist -19.1903 0 0
lhand -39.4722 388.133 0
lfingers 7.12502 0 0
lthumb -12.459 -662.258 0
rclavicle -3.73368e-014 -1.72563e-015 0
rhumerus -59.1645 51.0543 -111.617
rradius 113.594 0 0
rwrist -83.6953 0 0
rhand 8.03475 -385.954 0
rfingers 7.12502 0 0
rthumb 33.2601 307.101 0
2856
root -6.09249 13.2623 -28.8135 1240.67 -66.7264 -158.907
lfemur -65.682 44.9659 -5.53998
ltibia 77.2113 0 0
lfoot -4.84654 -6.2375 0
ltoes -29.4555 0 0
rfemur -31.2276 -19.2022 22.4944
rtibia 88.8166 0 0
rfoot -41.089 -28.8908 0
rtoes -13.8673 0 0
lowerback 15.6718 5.60947 1.04302
upperback -4.5155 7.98325 1.66439
thorax -13.9665 3.68939 -0.91313
lowerneck -2.54214 9.63098 2.25358
upperneck 9.16155 12.5382 2.03526
head 3.40998 6.33433 0.749602
lclavicle -3.29922e-014 -2.66977e-016 0
lhumerus 5.58535 12.249 84.2036
lradius 93.4098 0 0
lwrist -19.1968 0 0
lhand -39.4631 388.107 0
lfingers 7.12502 0 0
lthumb -12.4502 -662.284 0
rclavicle -3.29922e-014 -2.66977e-016 0
rhumerus -59.1695 51.0641 -111.631
rradius 113.584 0 0
rwrist -83.6737 0 0
rhand 8.05195 -385.939 0
rfingers 7.12502 0 0
rthumb 33.2764 307.119 0
2857
root -6.09392 13.2596 -28.8131 1240.66 -66.7331 -158.876
lfemur -65.7282 44.9644 -5.55299
ltibia 77.2399 0 0
lfoot -4.88648 -6.23588 0
ltoes -29.5651 0 0
rfemur -31.2528 -19.1941 22.5069
rtibia 88.84 0 0
rfoot -41.0861 -28.9213 0
rtoes -13.8697 0 0
lowerback 15.6798 5.60624 1.06061
upperback -4.51975 7.98291 1.6644
thorax -13.9738 3.68739 -0.923678
lowerneck -2.54576 9.62974 2.25375
upperneck 9.16399 12.536 2.03988
head 3.41119 6.33341 0.751245
lclavicle -2.9122e-014 1.19271e-015 0
lhumerus 5.59618 12.2531 84.1984
lradius 93.3981 0 0
lwrist -19.2015 0 0
lhand -39.4545 388.085 0
lfingers 7.12502 0 0
lthumb -12.4419 -662.305 0
rclavicle -2.9122e-014 1.19271e-015 0
rhumerus -59.1743 51.0736 -111.643
rradius 113.575 0 0
rwrist -83.6537 0 0
rhand 8.0662 -385.926 0
rfingers 7.12502 0 0
rthumb 33.29 307.135 0
2858
root -6.09418 13.2576 -28.8107 1240.65 -66.7402 -158.849
lfemur -65.7741 44.9624 -5.56813
ltibia 77.2684 0 0
lfoot -4.92824 -6.22942 0
ltoes -29.6724 0 0
rfemur -31.2796 -19.185 22.5176
rtibia 88.8646 0 0
rfoot -41.0814 -28.9542 0
rtoes -13.8702 0 0
lowerback 15.688 5.60357 1.07802
upperback -4.52421 7.9833 1.66429
thorax -13.9815 3.68572 -0.9345
lowerneck -2.54927 9.62823 2.25342
upperneck 9.16628 12.5335 2.04439
head 3.4123 6.33232 0.752904
lclavicle -2.53683e-014 2.8005e-015 0
lhumerus 5.60349 12.2599 84.1957
lradius 93.3869 0 0
lwrist -19.2051 0 0
lhand -39.4464 388.067 0
lfingers 7.12502 0 0
lthumb -12.4341 -662.323 0
rclavicle -2.53683e-014 2.8005e-015 0
rhumerus -59.1791 51.0831 -111.654
rradius 113.566 0 0
rwrist -83.6348 0 0
rhand 8.07777 -385.915 0
rfingers 7.12502 0 0
rthumb 33.301 307.148 0
2859
root -6.09444 13.2557 -28.8083 1240.64 -66.7481 -158.826
lfemur -65.8208 44.9602 -5.58663
ltibia 77.2967 0 0
lfoot -4.97302 -6.21874 0
ltoes -29.7833 0 0
rfemur -31.3085 -19.175 22.5266
rtibia 88.8904 0 0
rfoot -41.0742 -28.9903 0
rtoes -13.8698 0 0
lowerback 15.696 5.60131 1.09565
upperback -4.52894 7.98428 1.66412
thorax -13.9893 3.68429 -0.945654
lowerneck -2.55286 9.62637 2.25249
upperneck 9.16841 12.5305 2.04915
head 3.4133 6.33099 0.754717
lclavicle -2.1351e-014 4.68287e-015 0
lhumerus 5.60757 12.2684 84.195
lradius 93.3767 0 0
lwrist -19.2084 0 0
lhand -39.4387 388.05 0
lfingers 7.12502 0 0
lthumb -12.4267 -662.339 0
rclavicle -2.1351e-014 4.68287e-015 0
rhumerus -59.184 51.0927 -111.665
rradius 113.557 0 0
rwrist -83.6163 0 0
rhand 8.0872 -385.907 0
rfingers 7.12502 0 0
rthumb 33.31 307.158 0
2860
root -6.09469 13.2537 -28.8059 1240.64 -66.7567 -158.806
lfemur -65.8682 44.9579 -5.6081
ltibia 77.3248 0 0
lfoot -5.02052 -6.20417 0
ltoes -29.8973 0 0
rfemur -31.3391 -19.164 22.5338
rtibia 88.9173 0 0
rfoot -41.0648 -29.029 0
rtoes -13.8685 0 0
lowerback 15.7039 5.59942 1.11342
upperback -4.53389 7.9858 1.6639
thorax -13.9973 3.68309 -0.95709
lowerneck -2.55654 9.62419 2.25101
upperneck 9.17039 12.5271 2.05414
head 3.41421 6.32946 0.756664
lclavicle -1.71152e-014 6.80157e-015 0
lhumerus 5.60865 12.2785 84.1963
lradius 93.3675 0 0
lwrist -19.2114 0 0
lhand -39.4313 388.036 0
lfingers 7.12502 0 0
lthumb -12.4195 -662.352 0
rclavicle -1.71152e-014 6.80157e-015 0
rhumerus -59.1889 51.1024 -111.675
rradius 113.548 0 0
rwrist -83.5983 0 0
rhand 8.09462 -385.9 0
rfingers 7.12502 0 0
rthumb 33.317 307.167 0
2861
root -6.09495 13.2518 -28.8035 1240.64 -66.7657 -158.789
lfemur -65.916 44.9555 -5.63216
ltibia 77.3527 0 0
lfoot -5.07042 -6.18598 0
ltoes -30.014 0 0
rfemur -31.3714 -19.1523 22.5395
rtibia 88.9451 0 0
rfoot -41.0535 -29.0698 0
rtoes -13.8661 0 0
lowerback 15.7117 5.59788 1.13127
upperback -4.53903 7.98782 1.66362
thorax -14.0055 3.6821 -0.968758
lowerneck -2.56028 9.62172 2.24904
upperneck 9.1722 12.5233 2.0593
head 3.41502 6.32775 0.758726
lclavicle -1.27058e-014 9.11834e-015 0
lhumerus 5.60699 12.2902 84.1992
lradius 93.3589 0 0
lwrist -19.2141 0 0
lhand -39.4241 388.024 0
lfingers 7.12502 0 0
lthumb -12.4126 -662.364 0
rclavicle -1.27058e-014 9.11834e-015 0
rhumerus -59.1938 51.1121 -111.685
rradius 113.538 0 0
rwrist -83.5806 0 0
rhand 8.10013 -385.895 0
rfingers 7.12502 0 0
rthumb 33.3223 307.173 0
2862
root -6.09521 13.2498 -28.8011 1240.64 -66.7752 -158.775
lfemur -65.964 44.953 -5.65842
ltibia 77.3802 0 0
lfoot -5.12243 -6.1645 0
ltoes -30.1329 0 0
rfemur -31.4051 -19.1398 22.5439
rtibia 88.9737 0 0
rfoot -41.0406 -29.1124 0
rtoes -13.8627 0 0
lowerback 15.7194 5.59667 1.14911
upperback -4.54433 7.99027 1.66329
thorax -14.0137 3.6813 -0.980609
lowerneck -2.56407 9.61901 2.24661
upperneck 9.17385 12.5192 2.0646
head 3.41575 6.32587 0.760882
lclavicle -8.16774e-015 1.15949e-014 0
lhumerus 5.60284 12.3032 84.2036
lradius 93.3509 0 0
lwrist -19.2165 0 0
lhand -39.4171 388.013 0
lfingers 7.12502 0 0
lthumb -12.4059 -662.375 0
rclavicle -8.16774e-015 1.15949e-014 0
rhumerus -59.1987 51.1219 -111.694
rradius 113.529 0 0
rwrist -83.5635 0 0
rhand 8.10387 -385.891 0
rfingers 7.12502 0 0
rthumb 33.3258 307.178 0
2863
root -6.09547 13.2479 -28.7988 1240.64 -66.7849 -158.764
lfemur -66.0119 44.9504 -5.68649
ltibia 77.4074 0 0
lfoot -5.17623 -6.14003 0
ltoes -30.2537 0 0
rfemur -31.44 -19.1266 22.547
rtibia 89.0029 0 0
rfoot -41.0264 -29.1563 0
rtoes -13.8581 0 0
lowerback 15.727 5.59576 1.16689
upperback -4.54975 7.99312 1.6629
thorax -14.0221 3.68068 -0.992594
lowerneck -2.56789 9.61608 2.24379
upperneck 9.17532 12.5149 2.07
head 3.41638 6.32385 0.763113
lclavicle -3.54602e-015 1.41931e-014 0
lhumerus 5.59644 12.3175 84.2092
lradius 93.3434 0 0
lwrist -19.2186 0 0
lhand -39.4104 388.004 0
lfingers 7.12502 0 0
lthumb -12.3993 -662.384 0
rclavicle -3.54602e-015 1.41931e-014 0
rhumerus -59.2034 51.1316 -111.703
rradius 113.519 0 0
rwrist -83.5468 0 0
rhand 8.10596 -385.888 0
rfingers 7.12502 0 0
rthumb 33.3278 307.181 0
2864
root -6.09572 13.2459 -28.7964 1240.65 -66.7946 -158.755
lfemur -66.0597 44.9478 -5.71599
ltibia 77.4342 0 0
lfoot -5.23153 -6.11286 0
ltoes -30.3759 0 0
rfemur -31.4758 -19.1129 22.5489
rtibia 89.0325 0 0
rfoot -41.011 -29.2009 0
rtoes -13.8523 0 0
lowerback 15.7347 5.59512 1.18453
upperback -4.55526 7.9963 1.66245
thorax -14.0306 3.68023 -1.00466
lowerneck -2.57175 9.61297 2.24062
upperneck 9.17662 12.5103 2.07545
head 3.41693 6.32172 0.7654
lclavicle 1.1144e-015 1.68746e-014 0
lhumerus 5.58806 12.3329 84.2157
lradius 93.336 0 0
lwrist -19.2204 0 0
lhand -39.4038 387.996 0
lfingers 7.12502 0 0
lthumb -12.393 -662.391 0
rclavicle 1.1144e-015 1.68746e-014 0
rhumerus -59.208 51.1412 -111.712
rradius 113.509 0 0
rwrist -83.5306 0 0
rhand 8.10651 -385.886 0
rfingers 7.12502 0 0
rthumb 33.3283 307.183 0
2865
root -6.09598 13.244 -28.794 1240.66 -66.8042 -158.748
lfemur -66.107 44.945 -5.74654
ltibia 77.4605 0 0
lfoot -5.28803 -6.0833 0
ltoes -30.499 0 0
rfemur -31.5125 -19.0987 22.5499
rtibia 89.0623 0 0
rfoot -40.9947 -29.2459 0
rtoes -13.8453 0 0
lowerback 15.7424 5.59472 1.20195
upperback -4.56083 7.99978 1.66196
thorax -14.0393 3.67991 -1.01676
lowerneck -2.57561 9.60972 2.23716
upperneck 9.17774 12.5056 2.08091
head 3.41739 6.3195 0.767723
lclavicle 5.76856e-015 1.96012e-014 0
lhumerus 5.57793 12.3493 84.2231
lradius 93.3288 0 0
lwrist -19.2218 0 0
lhand -39.3973 387.989 0
lfingers 7.12502 0 0
lthumb -12.3867 -662.398 0
rclavicle 5.76856e-015 1.96012e-014 0
rhumerus -59.2123 51.1507 -111.72
rradius 113.499 0 0
rwrist -83.515 0 0
rhand 8.10566 -385.885 0
rfingers 7.12502 0 0
rthumb 33.3275 307.184 0
